<?xml version="1.0" encoding="utf-8"?>
<!-- Generator: Adobe Illustrator 21.1.0, SVG Export Plug-In . SVG Version: 6.00 Build 0)  -->
<svg version="1.1" id="Layer_1" xmlns="http://www.w3.org/2000/svg" xmlns:xlink="http://www.w3.org/1999/xlink" x="0px" y="0px"
	 viewBox="0 0 283.5 283.5" style="enable-background:new 0 0 283.5 283.5;" xml:space="preserve">
<style type="text/css">
	.st0{opacity:0.25;}
	.st1{fill:#FFFFFF;}
</style>
<g class="st0">
	<path class="st1" d="M248.5,138.9c-0.2,14-2.1,25-5.4,35.8c-4.3,14-11.4,26.5-20.8,37.7c-6.4,7.6-13.7,14-21.9,19.6
		c-7.2,5-15,8.9-23.3,11.8c-7.9,2.8-15.9,4.6-24.2,5.7c-6.1,0.8-12.2,1.2-18.3,0.6c-6.2-0.6-12.3-1.9-18.4-3
		c-6.2-1.2-12.2-3.3-17.9-5.9c-9.9-4.4-18.9-10.2-27.1-17.3c-7.2-6.3-13.4-13.3-18.7-21.2c-4.8-7-8.6-14.5-11.6-22.5
		c-2.8-7.6-4.7-15.5-6-23.5c-1.3-8-1.7-16-0.9-24c0.8-8.4,2.5-16.7,5-24.8C43,95.4,49.1,84,57.2,73.6c6.3-8,13.5-14.9,21.7-20.9
		c10-7,20.8-12.3,32.5-15.7c4.6-1.3,9.4-2.1,14.1-3c7.3-1.4,14.6-1.3,21.9-1c6.2,0.2,12.3,1.2,18.2,2.8c5.4,1.4,10.8,3,15.9,5.1
		c9.8,3.9,18.7,9.5,26.9,16.2c8.4,6.9,15.6,15,21.6,24c4.9,7.4,8.8,15.2,11.8,23.6c2.3,6.6,4.1,13.3,5,20.1
		C247.7,130.4,248.2,136,248.5,138.9z M242.7,139.9c-0.1-6.4-0.7-12.7-2.1-19c-5.5-26.2-18.9-47.4-40.4-63.2
		c-19-13.9-40.4-20.2-63.9-19.2c-19.8,0.9-37.9,7.2-54.1,18.9C66.9,68.5,55.6,82.8,48,100.1c-5.6,12.7-8.3,26.1-8.6,39.9
		c-0.1,5.3,0.3,10.6,1.1,15.9c4.4,30.1,19,54.1,44,71.3c22.3,15.3,47,20.5,73.7,16c20.1-3.4,37.6-12.2,52.2-26.3
		C232.3,195.9,242.6,170,242.7,139.9z"/>
	<path class="st1" d="M50.1,206.3c-4.5,2.7-8.9,5.3-13.4,7.9c-2.3-3.5-4.8-6.7-6.3-10.5c-0.6-1.5-0.6-3.2,0.8-4.4
		c1.3-1.1,2.8-0.9,4.3-0.2c0.2,0.1,0.3,0.1,0.6,0.2c-0.2-2.1,0.4-3.6,2.5-4.3c2-0.6,4.2,0.1,5.5,1.9C46.1,200,48,203.1,50.1,206.3z
		 M45.6,204.6c-1.2-1.9-2.3-3.7-3.6-5.4c-0.6-0.8-1.5-1.2-2.5-0.5c-0.9,0.6-0.9,1.5-0.4,2.4c1,1.8,2,3.6,3.1,5.4
		C43.3,205.9,44.3,205.3,45.6,204.6z M35,201.8c-1.5,0.6-1.8,1.2-1.2,2.4c0.9,1.8,2,3.5,3.1,5.3c1-0.6,1.9-1.1,2.9-1.6
		C38,205.8,37.5,203,35,201.8z"/>
	<path class="st1" d="M167.1,13.8c4.3,1,8.5,1.6,12.3,3.5c2,1,2.9,2.9,2.4,4.8c-0.5,2.2-2,3.3-4.5,3.3c-0.3,0-0.5,0-0.6,0
		c1,2.7,2,5.5,3.2,8.6c-1.7-0.5-2.9-1-4-1.3c-0.9-2.1-1.7-4-2.5-6c-0.8-1.9-2.4-2.6-4.4-2.8c-0.5,2.1-1,4.2-1.6,6.3
		c-1.2-0.3-2.3-0.5-3.5-0.7C164.9,24.3,166,19.2,167.1,13.8z M169.5,21.2c2.1,0.5,4.1,1,6.2,1.4c1,0.2,1.8-0.2,2.1-1.2
		c0.4-1,0-1.8-0.9-2.1c-2.1-0.8-4.3-1.4-6.5-2.1C170.1,18.7,169.8,19.9,169.5,21.2z"/>
	<path class="st1" d="M229.5,70.5c4.1-3.3,8.1-6.6,12.5-10.1c2.2,3.5,4.6,6.7,6.4,10.3c1.9,3.7,0.5,7.3-3.1,9.5
		c-3.6,2.2-7.1,1.7-9.8-1.4c-0.5-0.6-1-1.2-1.4-1.8C232.5,74.8,231.1,72.7,229.5,70.5z M233.9,72c1,1.5,1.9,2.9,2.9,4.1
		c0.7,0.7,1.7,1.5,2.6,1.6c2.1,0.4,5.6-2.1,6.2-4.2c0.2-0.5,0.3-1.2,0.1-1.7c-1-2.1-2.1-4.2-3.3-6.4C239.4,67.8,236.7,69.8,233.9,72
		z"/>
	<path class="st1" d="M113.6,14.8c1.2-0.3,2.2-0.5,3.4-0.8c1,5.2,1.9,10.3,2.9,15.6c-1.5,0.3-2.9,0.7-4.2,1c-3.5-3.2-7-6.3-10.5-9.4
		c-0.1,0.1-0.2,0.1-0.3,0.2c1.1,3.7,2.2,7.5,3.3,11.3c-1,0.3-1.9,0.7-3,1c-1.6-5-3.2-9.9-4.9-15.1c1.7-0.6,3.3-1.1,5-1.7
		c3.5,3.1,7,6.2,10.7,9.5C115.2,22.5,114.5,18.8,113.6,14.8z"/>
	<path class="st1" d="M64.9,55c-0.1,0.7-0.1,1.4-0.4,2c-1.8,4.7-5,7.9-10,8.9c-3.4,0.7-8.6-2.2-8.7-6.3c0-1,0-2,0.4-2.9
		c2-4.6,5.3-7.8,10.4-8.7C60.6,47.2,64.8,50.9,64.9,55z M61.1,56.3c0-3.1-3.7-5.6-6.8-4.5c-2.1,0.8-3.6,2.3-4.6,4.3
		c-0.7,1.5-0.5,2.9,0.6,4.2c1.6,1.9,4.1,2.6,6.3,1.8C59.1,61.1,61.1,58.5,61.1,56.3z"/>
	<path class="st1" d="M27.2,106.9c2.8-1.1,5.4-2.2,8.4-3.3c-0.5,1.6-0.9,2.8-1.3,4c-1.7,0.7-3.4,1.4-5,2.1c-1.9,0.8-3.3,2.1-3.3,4.5
		c1.9,0.4,3.9,0.8,6.1,1.2c-0.2,1.1-0.4,2.2-0.7,3.4c-5.2-0.8-10.4-1.7-15.9-2.6c1.1-3.9,2.1-7.7,3.4-11.3c0.9-2.4,3.3-3.4,5.5-2.7
		c1.7,0.6,2.7,1.8,2.8,3.6C27.2,106.2,27.2,106.7,27.2,106.9z M22.8,105.7c-1.6,0.7-3.2,4.3-3.1,7.2c1.1,0.2,2.1,0.4,3.3,0.6
		c0.4-1.9,0.8-3.6,1.3-5.4C24.6,106.9,24.2,106.1,22.8,105.7z"/>
	<path class="st1" d="M134.5,265c1.8,2.2,3.6,4.4,5.6,6.8c-1.8,0-3.3,0-4.8,0c-1.3-1.7-2.6-3.3-3.8-4.9s-2.8-2-4.8-1.9
		c-0.3,2-0.7,3.9-1,6c-1.4-0.2-2.7-0.4-4.2-0.6c1-5,2.1-9.9,3.1-15c3.8,0.5,7.4,0.9,11,1.5c1.9,0.3,3,2,3.1,3.9c0,1.9-1,3.3-2.9,3.9
		C135.4,264.8,134.9,264.9,134.5,265z M127.8,258.6c-0.2,1.2-0.3,2.3-0.5,3.5c2.1,0.1,4,0.3,6,0.3c0.9,0,1.7-0.4,1.7-1.5
		c0.1-1-0.6-1.5-1.4-1.7C131.7,259,129.8,258.8,127.8,258.6z"/>
	<path class="st1" d="M210.9,31.7c2.9,2.2,5.7,4.1,8.3,6.3c3.2,2.8,3.5,6.7,0.9,10.2c-2.8,3.7-6.6,4.7-10.3,2.4
		c-2.6-1.6-5-3.4-7.5-5.3C205.2,40.8,208,36.4,210.9,31.7z M206.9,45.1c0.8,0.6,1.6,1.1,2.3,1.7c3,2.3,4.7,3.2,8.1-1.4
		c0.1-0.1,0.2-0.3,0.3-0.4c1.2-2,1.1-3.7-0.5-5.2c-1.3-1.2-2.7-2.2-4.2-3.4C210.8,39.3,208.9,42.2,206.9,45.1z"/>
	<path class="st1" d="M38.2,185c-5,1.8-9.8,3.6-14.8,5.4c-1.3-3.7-3.3-7.1-3.5-11.1c-0.1-2,0.8-3.6,2.3-4.8
		c4.8-3.8,11.2-2.1,13.4,3.6C36.4,180.4,37.3,182.6,38.2,185z M34.2,182.6c-0.4-1-0.7-1.8-1-2.7c-0.2-0.5-0.4-1-0.6-1.5
		c-0.8-1.8-2-2.5-4-2.3c-1.2,0.2-2.4,0.5-3.5,1c-1.6,0.7-2.3,1.8-2,3.5c0.3,1.7,0.9,3.3,1.5,5.1C27.9,184.7,31,183.6,34.2,182.6z"/>
	<path class="st1" d="M13.4,129.5c0.4-1.6,0.6-3.2,1.2-4.7c1.3-3.4,4.4-5.1,8.2-4.7c3.9,0.4,6.6,2.6,7.2,6.3c0.8,4.6-0.9,10-6.2,11
		C17,138.9,13.3,134.7,13.4,129.5z M16.6,129.1c-0.1,3.1,1.8,5,5.2,5c3.2,0,5.4-2,5.5-5.1c0.1-3.2-1.9-5.1-5.5-5.2
		C18.6,123.7,16.6,125.7,16.6,129.1z"/>
	<path class="st1" d="M147.3,27.3c0.3-5.2,0.6-10.4,0.9-15.9c5.1,0.5,10.1,1.1,15.3,1.6c-0.2,1.1-0.3,1.9-0.4,2.7
		c-3.7-0.4-7.3-0.9-11-1.3c-0.1,1.3-0.2,2.3-0.3,3.4c3.3,0.4,6.6,0.8,10,1.2c-0.1,1-0.3,1.8-0.4,2.6c-3.3-0.4-6.5-0.8-9.8-1.1
		c-0.1,1.6-0.3,3-0.4,4.4c3.6,0.5,7.1,0.9,10.6,1.4c-0.2,1-0.3,1.8-0.5,2.6C156.6,28.4,152,27.9,147.3,27.3z"/>
	<path class="st1" d="M186,30.3c0.1,3,1.8,4.9,4.7,5c0.7,0,1.7-0.5,2.1-1.1c0.2-0.3-0.2-1.5-0.7-1.9c-1.2-1.1-2.6-1.9-3.8-3
		c-0.9-0.8-1.9-1.6-2.5-2.6c-1.6-2.4-0.2-5.3,2.6-5.4c3.9-0.2,7.2,1.4,9.7,4.3c1,1.2,1.3,2.7,0.5,4.3c-1.1-0.6-2.2-1.1-3.4-1.7
		c0.1-2.5-1.7-3.2-3.5-3.8c-0.9-0.3-1.9-0.7-2.9,0.5c0.4,0.5,0.8,1.1,1.3,1.5c1.2,1,2.5,1.9,3.8,2.9c0.3,0.2,0.6,0.5,0.9,0.8
		c1.9,1.7,2.4,3.7,1.5,5.5c-0.9,1.9-2.9,2.9-5.3,2.5c-2.5-0.4-4.8-1.5-6.8-3.2c-1.7-1.5-2.3-3.4-1.8-5.7
		C183.7,29.7,184.8,30,186,30.3z"/>
	<path class="st1" d="M244.5,95.6c4.3-2.2,8.6-4.3,12.9-6.5c1.6,3.7,3.6,7,4.3,10.9c0.7,3.9-2.5,7.5-6.8,7.7c-3,0.2-5.2-1.1-6.6-3.7
		c-0.1-0.3-0.3-0.5-0.5-0.8C246.7,100.7,245.7,98.2,244.5,95.6z M256.9,93.9c-3,1.4-5.6,2.6-8.5,3.9c0.8,1.7,1.4,3.3,2.3,4.8
		c0.7,1.3,1.9,1.8,3.3,1.5c1.1-0.2,2.2-0.7,3.1-1.2c1.4-0.7,2-2.1,1.6-3.7C258.2,97.5,257.5,95.8,256.9,93.9z"/>
	<path class="st1" d="M14.4,158.2c1.1-0.1,2-0.2,2.9-0.3c0.6,3.2,1.2,6.4,1.8,9.7c1.1-0.2,2.1-0.3,3.2-0.5c-0.5-3-1-5.9-1.6-8.9
		c1-0.1,1.9-0.2,2.8-0.4c0.5,2.9,1.1,5.7,1.6,8.7c1.3-0.2,2.5-0.5,3.8-0.7c-0.6-3.2-1.1-6.2-1.7-9.5c1.1-0.1,1.9-0.2,2.8-0.3
		c0.8,4.2,1.6,8.3,2.5,12.7c-5,1.1-10.1,2.2-15.5,3.4C16.2,167.5,15.3,163,14.4,158.2z"/>
	<path class="st1" d="M231.6,48.8c1.3,1.4,2.4,2.5,3.7,3.9c-2.2,5.4-4.4,10.8-6.8,16.6c-1-1.3-1.9-2.2-2.7-3.2
		c0.5-1.2,1.1-2.3,1.6-3.6c-1.8-1.9-3.7-3.9-5.6-6c-1.2,0.5-2.3,1-3.6,1.5c-0.9-0.8-1.8-1.7-3-2.8C220.9,53,226.3,50.9,231.6,48.8z
		 M231.4,53.1c-0.1-0.1-0.2-0.2-0.3-0.3c-2.1,0.8-4.3,1.6-6.6,2.5c1.5,1.6,2.8,2.9,4.2,4.4C229.6,57.4,230.5,55.3,231.4,53.1z"/>
	<path class="st1" d="M84.3,25.7c1.4,3,2.8,5.7,4.2,8.5c1.1,2.2,2.2,2.7,4.6,1.7c0.5-0.2,1.1-0.5,1.6-0.8c1.9-1.1,2.3-2.1,1.5-4.2
		c-1.1-3-2.3-6-3.6-9.3c1.3-0.5,2.5-1.1,4-1.7c0.3,0.8,0.6,1.4,0.8,2.1c0.9,2.6,1.9,5.2,2.7,7.9c0.8,2.4,0.1,4.5-1.9,6
		c-2.2,1.7-4.7,2.9-7.4,3.4c-2.2,0.4-4.1-0.2-5.2-2.3c-1.7-3.1-3.4-6.1-5.1-9.4C81.7,27.1,82.9,26.5,84.3,25.7z"/>
	<path class="st1" d="M252.8,168.4c0.2-1.2,0.5-2.2,0.7-3.3c4.7,0.9,9.4,1.8,14.1,2.7c-0.9,4-1.4,8-3.2,11.6
		c-0.9,1.8-2.6,2.6-4.4,2.2c-1.7-0.4-2.8-1.8-2.8-3.8c0-0.4,0-0.8,0-1.2c-1.3,0.6-2.4,1.2-3.7,1.7c-1.2,0.5-2.4,0.8-3.9,1.3
		c0.5-1.4,0.8-2.6,1.2-3.6c3-1.6,7.1-1.6,7.7-6.2C256.6,169.3,254.8,168.8,252.8,168.4z M261.1,170.2c-0.5,2-1,3.8-1.3,5.6
		c-0.1,0.6,0.5,1.5,1,1.8c0.3,0.2,1.5-0.3,1.7-0.8c0.7-1.9,1.2-3.9,1.8-5.9C263.1,170.7,262.2,170.5,261.1,170.2z"/>
	<path class="st1" d="M49.7,229.9c-1-1.1-1.9-2-2.9-3.1c2.4-1.8,4.7-3.5,6.9-5.3c1-0.8,2.4-1.5,2-3.1c-0.5-1.9-1.6-3.5-3.6-4
		c-0.7-0.2-1.7,0.2-2.4,0.6c-2.3,1.4-4.6,3-6.9,4.5c-0.4,0.3-0.9,0.6-1.4,0.9c-0.8-1.1-1.6-2.1-2.6-3.3c3.5-2.1,6.9-4.1,10.3-6
		c1.4-0.8,2.9-0.4,4.3,0.4c2.5,1.5,4.4,3.6,5.6,6.3c0.9,1.9,0.6,3.8-1.1,5.3C55.2,225.3,52.5,227.5,49.7,229.9z"/>
	<path class="st1" d="M112.5,252.5c1,0.3,2.2,0.6,3.2,0.9c1,5.5,2,10.9,3,16.4c-1.4-0.3-2.8-0.6-4.2-0.9c-0.3-1.3-0.5-2.6-0.7-3.8
		c-2.4-0.7-4.8-1.4-7.2-2c-1,0.9-2,1.8-3,2.7c-1.3-0.5-2.7-1-4-1.4C103.8,260.4,108.1,256.5,112.5,252.5z M108.8,260.8
		c1.5,0.4,2.9,0.8,4.5,1.3c-0.2-1.9-0.4-3.5-0.6-5.4C111.4,258.1,110.2,259.4,108.8,260.8z"/>
	<path class="st1" d="M181.1,261.1c-2.4,0.8-4.8,1.6-7.1,2.4c-0.2,1.2-0.3,2.4-0.5,3.8c-1.3,0.4-2.7,0.8-4.2,1.2
		c0.7-5.5,1.4-10.9,2.1-16.5c0.9-0.3,2.1-0.7,3.1-1.1c4.6,3.7,9,7.4,13.6,11.2c-1.3,0.5-2.6,1.1-3.9,1.7
		C183.2,262.8,182.2,262,181.1,261.1z M178.7,258.9c-1.4-1.3-2.7-2.5-4.3-4c0,2.1,0,3.7,0,5.5C175.8,259.9,177.1,259.4,178.7,258.9z
		"/>
	<path class="st1" d="M264.9,107.6c1.1,4.7,2.2,9.3,3.3,13.9c-1,0.2-1.8,0.3-2.7,0.5c-0.8-3.3-1.5-6.5-2.2-9.8
		c-1,0.3-1.9,0.5-2.8,0.8c0.7,3,1.3,5.8,2,8.9c-0.9,0.2-1.7,0.3-2.6,0.5c-0.7-2.9-1.3-5.7-2-8.7c-1.2,0.3-2.2,0.6-3.4,0.9
		c0.7,3.2,1.4,6.2,2,9.4c-0.9,0.2-1.7,0.4-2.5,0.5c-1-4.2-2-8.3-3-12.6C255.5,110.6,260,109.1,264.9,107.6z"/>
	<path class="st1" d="M75,239.7c-0.8-0.9-1.6-1.9-2.5-3c2-1.3,4-1.4,6.1-0.9c2.6,0.7,4.9,2.1,6.6,4.2c1.9,2.3,2.6,4.8,1.2,7.6
		c-1.5,2.9-4,4.4-7.3,4.1c-3.9-0.3-7.1-2.1-9.6-5.2c-1.5-1.8-1.7-3.7-0.8-5.8c1.2,0.7,2.4,1.3,3.6,1.9c-0.6,3.6,2.7,5.5,5.2,5.9
		c2.4,0.4,5.2-1.9,5.7-4.5c0.2-1.4-0.4-2.5-1.4-3.5C79.9,238.8,78.1,238.6,75,239.7z"/>
	<path class="st1" d="M23.8,149.9c1.9-0.1,3.7-0.2,5.7-0.4c0.1,1.1,0.3,2.2,0.4,3.4c-5.3,0.5-10.5,1-16,1.6
		c-0.1-3.6-0.4-7.1-0.2-10.5c0.1-2.5,1.9-4.1,4.1-4.2c2.9-0.1,4.8,1.2,5.3,3.9C23.5,145.7,23.6,147.8,23.8,149.9z M16.5,150.5
		c1.6-0.1,2.9-0.2,4.3-0.4c-0.1-1.6-0.2-3.1-0.4-4.6c-0.2-1.1-0.7-2-2-2c-1.2,0-1.8,0.9-1.9,1.9C16.4,147.1,16.5,148.7,16.5,150.5z"
		/>
	<path class="st1" d="M162.3,263.9c1.3,0,2.6,0,3.9,0c-0.1,2.4-1.1,4.1-3.1,5.2c-2.9,1.6-6,2-9.1,1.1c-2.8-0.8-4.5-2.7-4.9-5.6
		c-0.4-3.1,0.4-5.9,3.1-7.7c2.5-1.7,5.4-2.2,8.4-1.5c1.8,0.4,3,1.3,4.2,3.2c-1.1,0.5-2.2,0.9-3.3,1.3c-2.1-2.2-4-2.6-6.8-1.1
		c-1.8,1-2.3,3.2-1.5,5.9c0.6,2,2,3.1,4.1,3.2C159.9,268,161.3,266.8,162.3,263.9z"/>
	<path class="st1" d="M208.3,238.8c-0.2-1.3-0.4-2.4-0.6-3.7c0.9-0.7,1.9-1.4,3.2-2.3c0.8,5.5,1.6,10.8,2.3,16
		c-1.4,0.9-2.5,1.6-3.9,2.4c-4.4-2.9-8.7-5.9-13.3-9c1.3-0.7,2.4-1.4,3.5-2c1,0.7,1.9,1.4,3,2.1
		C204.4,241.3,206.3,240.1,208.3,238.8z M209.5,247c-0.2-1.9-0.4-3.5-0.7-5.3c-1.3,0.9-2.5,1.6-3.8,2.4
		C206.5,245.1,207.8,246,209.5,247z"/>
	<path class="st1" d="M39,64.6c1-1.3,1.8-2.4,2.7-3.5c2.9,4.6,5.8,9.2,8.8,13.9c-0.7,1-1.5,2.1-2.2,3.2c-5.8-0.5-11.5-0.9-17.3-1.4
		c0.7-1.2,1.4-2.4,2.2-3.7c4.1,0.4,8.3,0.8,12.5,1.2C43.4,71,41.2,67.8,39,64.6z"/>
	<path class="st1" d="M139.1,27.5c-1.2,0-2.5,0-3.9,0c-2.7-4.9-5.4-9.9-8.1-15.1c1.4-0.2,2.7-0.3,4.3-0.5c1.9,4,3.8,7.9,5.7,12
		c1.7-4.2,3.3-8.4,5-12.4c1.5,0,2.9,0,4.3,0C144,16.8,141.6,22,139.1,27.5z"/>
	<path class="st1" d="M239.4,225.9c-5-1.5-10-3-15.3-4.6c1-1,1.7-1.9,2.6-2.8c1.2,0.4,2.3,0.7,3.5,1.1c1.4-1.7,2.7-3.3,4.2-5
		c-0.6-1.1-1.2-2.1-1.8-3.2c0.7-0.9,1.4-1.9,2.3-3.1c2.5,4.9,4.9,9.6,7.3,14.2C241.2,223.7,240.4,224.7,239.4,225.9z M232.9,220.5
		c1.7,0.5,3.3,0.9,5.1,1.4c-0.8-1.7-1.5-3.2-2.3-4.7C234.8,218.3,233.9,219.3,232.9,220.5z"/>
	<path class="st1" d="M253.9,163.1c0.2-1.5,0.4-2.5,0.5-3.7c1.1-0.3,2.3-0.7,3.6-1.1c0.2-2.1,0.4-4.1,0.7-6.4
		c-1.1-0.5-2.1-1.1-3.1-1.6c0-1.2,0-2.4,0-3.9c4.8,2.6,9.4,5,14,7.5c-0.1,1.5-0.3,2.8-0.4,4.3C264.2,159.8,259.2,161.4,253.9,163.1z
		 M265.8,155.8c-1.7-1-3.1-1.7-4.6-2.5c-0.1,1.5-0.3,2.8-0.4,4.2C262.4,157,263.9,156.5,265.8,155.8z"/>
	<path class="st1" d="M245,202.3c-1.6-0.9-3-1.8-4.5-2.7c0.5-1,1-1.9,1.6-3c4.2,2.3,8.4,4.5,12.8,6.9c-2,3.1-3.8,6.1-5.9,9
		c-1.4,2-3.9,2.2-5.7,1c-1.9-1.3-2.4-3.6-1.3-6c0.4-0.9,0.9-1.8,1.4-2.6C244,204,244.5,203.2,245,202.3z M247.3,203.6
		c-0.8,1.4-1.6,2.7-2.3,4.1c-0.5,0.9-0.6,2,0.5,2.6c1,0.6,1.9,0,2.4-0.8c0.9-1.2,1.7-2.6,2.6-4C249.5,204.9,248.5,204.3,247.3,203.6
		z"/>
	<path class="st1" d="M248.4,191.5c0.8-2,1.7-3.9,2.6-6c-0.9-0.8-1.9-1.5-2.8-2.2c0.5-1.4,0.9-2.4,1.4-3.8
		c3.8,3.9,7.4,7.6,11.1,11.3c-0.6,1.4-1.1,2.5-1.6,3.9c-5.2,0-10.4,0-15.9,0c0.6-1.2,1-2.2,1.5-3.2
		C245.9,191.5,247.1,191.5,248.4,191.5z M256.6,191.5c-1.3-1.4-2.4-2.6-3.6-3.9c-0.6,1.4-1.1,2.6-1.7,3.9
		C253,191.5,254.6,191.5,256.6,191.5z"/>
	<path class="st1" d="M217.9,240.3c0.9-1,1.7-1.9,2.5-2.7c2.7,0.8,4.7,0,6.1-2.2c1.1-1.8,0.9-3.3-0.6-5c-1.7-1.9-3.4-2.5-5.2-1.6
		c-2.3,1.1-3.1,2.7-2.6,5.9c-1,0.5-2.1,1-3.5,1.6c0-1.7-0.3-3.1,0-4.4c1-4.2,6.3-7.4,10.4-6.4c4,1,6.5,5.4,5,9.2
		c-1.3,3.4-3.8,5.6-7.3,6.6C220.9,241.6,219.4,241.4,217.9,240.3z"/>
	<path class="st1" d="M39.1,94.8c-0.5,1.2-0.9,2.1-1.4,3.3c-4-1.3-8-2.7-12.2-4.1c-0.7,1.8-1.4,3.5-2.1,5.3
		c-0.9-0.2-1.7-0.5-2.9-0.8c2.1-4.9,4.1-9.6,6.2-14.5c1,0.4,1.9,0.8,2.8,1.2c-0.8,1.8-1.6,3.4-2.4,5.2
		C31.1,91.8,35.1,93.3,39.1,94.8z"/>
	<path class="st1" d="M61.2,223.8c0.8-0.7,1.4-1.2,2.1-1.8c3.3,3,6.6,6,10.2,9.2c-3.7,3.4-7.4,6.8-11.2,10.3
		c-0.7-0.5-1.7-1.4-2.6-2.2c2.8-3.1,5.6-6.1,8.4-9.1C65.9,228.3,63.6,226.1,61.2,223.8z"/>
	<path class="st1" d="M255.6,141.3c-0.1-1-0.1-2.1-0.2-3.3c4-0.3,7.8-0.5,11.8-0.8c-0.1-1.9-0.2-3.6-0.3-5.5
		c0.8-0.1,1.6-0.2,2.7-0.4c0.2,5.1,0.4,10,0.5,15.1c-1,0-1.8,0-2.7,0c0-1.7,0-3.4,0-5.2C263.4,141.3,259.5,141.3,255.6,141.3z"/>
	<path class="st1" d="M125.1,12.6c0.6,5.4,1.3,10.5,1.9,15.8c-1.2,0.2-2.4,0.4-3.7,0.5c-0.8-5.3-1.6-10.4-2.4-15.7
		C122.4,13.1,123.7,12.9,125.1,12.6z"/>
	<path class="st1" d="M199.5,43.5c-1.1-0.6-2-1.2-3.1-1.8c2.6-4.6,5.1-9.3,7.7-14c1.2,0.7,2.3,1.4,3.6,2.1
		C204.9,34.3,202.2,38.8,199.5,43.5z"/>
	<path class="st1" d="M42.3,88.2c-4.8-2.1-9.5-4.1-14.3-6.2c0.7-1.2,1.3-2.4,2-3.6c4.7,2.2,9.3,4.3,14.1,6.6
		C43.5,86.1,42.9,87.1,42.3,88.2z"/>
	<path class="st1" d="M145.9,256.8c0.2,4.8,0.5,9.8,0.8,15c-1.4,0.1-2.7,0.1-4.2,0.2c0-5,0-10,0-15.2
		C143.4,256.8,144.6,256.8,145.9,256.8z"/>
	<path class="st1" d="M190.9,258.2c-2.2,0-4-1.7-4-3.6c0-1.7,2.2-3.6,3.9-3.6c1.8,0,3.9,2,3.9,3.7
		C194.7,256.4,192.8,258.2,190.9,258.2z"/>
	<path class="st1" d="M97.2,258.2c-2.2,0-3.8-1.5-3.7-3.6c0-1.9,1.8-3.6,3.7-3.6c1.9,0,3.9,2,3.9,3.8
		C101,256.6,99.2,258.2,97.2,258.2z"/>
	<path class="st1" d="M213.1,250.3c-0.1,1.2-0.2,2.3-0.3,3.5c-1.2,0.7-2.4,1.5-3.6,2.2C210.2,253.8,210.2,251.2,213.1,250.3z"/>
	<path class="st1" d="M72.9,80.7c-0.1-0.3-0.2-0.3-0.2-0.4c0.8-3.6,1.4-7.4,5.2-9.2c3.6-1.8,7.4-3.3,11.1-4.8c2-0.8,3.7-2,5.2-3.5
		c3.1-2.9,6.4-5.2,10.8-6c2.6-0.4,5-1.5,7.5-2.1c1.9-0.5,3.9-0.6,5.8-1.3c4.7-1.6,9.5-2.9,14.6-2.9c2.8,0,5.7-0.2,8.5-0.2
		s5.5,0.6,7.8,2.5c1,0.8,2.4,1.2,3.6,1.7c1.4,0.6,3.1,0.9,4.3,1.8c1.8,1.3,3.3,3,4.8,4.7c2.4,2.9,4.7,5.9,7,8.9
		c0.2,0.2,0.5,0.4,0.7,0.6c2.9,2.3,6.1,4.1,9.5,5.7c1.7,0.8,3,2.3,4.7,3.1c2.3,1.1,3.4,3.2,5,4.9c1.3,1.4,2.5,3,3.9,4.4
		c0.7,0.7,1.9,1.1,2.9,1.4c2.6,0.8,5.3,1.5,8,2.1c3.7,0.8,7.5,1.4,11.2,2.2c2.5,0.5,4.8,1.3,7.1,2.6c2.1,1.2,4.6,1.6,7.5,2.5
		c0.8,0.6,1.3,1.8,1.2,3.4c-0.1,0.7-0.1,1.4,0,2c0.4,3.2-1.4,5.3-3.6,7.2c-0.7,0.6-1.3,1.5-1.9,2.1c0.3,2.2,0.6,4.3,1,6.4
		c0.5,3.5,0.2,6.8-1.2,10c-0.5,1.1-0.9,2.3-1.3,3.4c-0.9,2.5-3,3.8-5,5.1c-0.3,0.2-0.8,0.2-1.5,0.3c-0.3-1.1-0.4-2.3-1-3.2
		c-1-1.6-2-3.2-3.3-4.4c-2.2-2.1-4.9-3.6-7.9-4.2c-2.2-0.4-4.4-0.8-6.6-1c-2.6-0.2-5.3-0.1-8-0.3c-3.5-0.3-5.9,1.6-8,4
		c-2.2,2.5-2.6,5.8-3,8.9c-0.4,3.5-0.5,7.1-0.7,10.6c0,0.8,0.1,1.6,0.4,2.3c1.2,3,3.1,5.5,6.5,6.3c1,0.3,2.1,0.4,3.2,0.4
		c4.2-0.1,8.4-0.2,12.5-0.6c2.9-0.3,5.1-3.3,5.2-6.2c0-1.2,0-2.4,0-3.8c1.2,0.5,1.9,1.3,2.4,2.3c0.8,1.6,1.5,3.2,2.4,4.8
		c1.1,2,2.2,4,3.4,6c0.8,1.2,1.2,2.5,1.2,3.9c0,2.8,0,5.6-0.1,8.5c0,0.7-0.4,1.3-0.7,2c-0.8,2.5-1.5,5-2.6,7.3
		c-0.6,1.3-1.8,2.4-2.8,3.5c-3.4,4-7.9,6.4-12.8,8.1c-0.7,0.2-1.6,0.2-2.5,0.4c0-2.8,0-5.5,0-8.1c0-1,0.2-2,0.2-2.9
		c-0.1-1.9-1.7-1.9-3.1-2.2c-0.7-0.1-1.6,0-2.2,0.2c-4.2,1.7-6.8,5-8.3,9.1c-0.4,1.2-0.4,2.6-0.3,3.8c0.2,4.2-1.3,7.8-2.9,11.5
		c-1.4,3.2-3.9,5.3-6.4,7.5c-1.2,1-1.4,1-3.7,0.7c0.4-1.2,0.9-2.4,1.2-3.7c0.4-1.8,0.3-3.6-0.6-5.4c-0.5-1.1-0.6-2.4-1-3.6
		c-0.5-1.4-1.4-1.6-2.5-0.5s-1.4,2.3-0.8,3.7c1.8,3.9,1.6,7.8,0.4,11.7c-0.4,1.4-1,2.8-1.5,4.2c-0.9,0-1.5,0-2.1,0
		c-0.5-0.8-1-1.6-1.7-2.7c-0.9,0.7-1.5,1.2-2.2,1.8c0.2,0.1,0.3,0.1,0.5,0.2c0.2,2.8,0.5,5.7,0.6,8.5c0.1,3.5-0.9,6.8-2.2,10
		c-0.5,1.3-1.6,2.5-2.7,3.3c-0.8,0.6-2.1,0.6-3.6,0.9c0-1.7,0-3,0-4.2c-0.1-3.8-1.1-7.4-3.1-10.6c-0.8-1.3-2-2.5-3.3-3.5
		c-3.8-3.1-8.3-4.4-13-5.5c-4.4-1.1-8.8-1.9-12.9-3.7c-3.1-1.3-6.4-2.6-9.1-5c-2.1-1.9-4.5-3.3-6.6-5.1c-1.2-1-2-2.4-3.1-3.5
		c-2.6-2.6-5.3-5.2-7.9-7.9c-0.6-0.6-1-1.4-1.5-2.1c-1,0.2-1.4,0.9-1.2,1.8c0.5,2.1,1.2,4.1,1.8,6.2c0.3,1,0.8,1.9,1.3,2.9
		c-0.3,0.1-0.7,0.3-0.9,0.2c-3-0.8-6-1.5-8.9-2.7c-1.7-0.8-3-2.5-4.5-3.7c-0.2-0.2-0.3-0.4-0.6-0.6c-3.1-1.9-4.4-5.1-5.6-8.2
		c-1.5-3.7-2.5-7.7-2.4-11.8c0-4.2-0.1-8.4,0-12.6c0-2.1,0.3-4.1,0.5-6.2c0.1-0.9,0.1-1.8-0.8-2c-0.7-0.2-1.9,0-2.4,0.5
		c-1.6,1.5-1.4,3.5-1.1,5.4c0.2,1.5,0.5,3.1,0.6,4.7c0.1,1.2-0.5,2.2-2,2.5c-3.6-2.4-6.8-5.3-8.5-9.6c-1.4-3.4-1.3-6.8-1.3-10.3
		c0-2.1,0.3-4.1,0.3-6.2c0-3.1,2.3-5.2,3.7-7.6c0.6-1,1.2-1.9,1.9-2.8c0.5-0.6,1-1.4,1.6-1.8c3.7-2.2,5-5.7,5.6-9.6
		c0.2-1.6,0.3-3.3,0.4-5c-0.2-0.1-0.5-0.2-0.7-0.2c-0.4,0.7-0.9,1.3-1.2,2c-0.3,0.7-0.3,1.5-0.5,2.2c-0.6,1.6-1.2,2-3.2,1.9
		c-1-1.6-2.3-3.2-3.2-5.1c-1.5-3-1.5-6.1-0.7-9.4c1.1-4.1,3.6-7.5,5.9-10.9c2.7-4.2,6.5-7.3,10-10.8c2.1-2.1,4.5-3.9,6.7-5.8
		c0.7-0.6,1.2-1.3,1.7-2C78.5,78.8,76,80.5,72.9,80.7z M174.3,189.6c0-2.8,0.1-2.9,1.7-4.5c0.2-0.2,0.4-0.5,0.6-0.7
		c2.6-3.5,6-6,10-7.8c2.8-1.4,5.6-1.1,8.5-0.6c0.3,0.1,0.6,0.3,0.9,0.5c2.3,1.9,4.3,4.1,5.3,7.4c1-0.8,1.9-1.4,2.7-2
		c4-3.1,6.7-6.8,6.3-12.1c0-0.4,0.1-0.9,0.2-1.3c0.1-1.7,0.2-3.3,0.3-5.4c-1.2,0.6-2,1-2.9,1.5c-3.7,2.2-7.5,4-12.1,3.4
		c-0.8-0.1-1.5-0.1-2.3,0c-4.2,0.4-7.9-1.5-11.6-2.9c-3.8-1.5-6.9-4.2-8.7-7.8c-1-1.9-1.4-4.3-1.6-6.5c-0.2-1.9,0.6-3.9,0.5-5.8
		c-0.5-5.6,0.8-10.8,2.5-16c0.5-1.6,1.4-3.3,2.6-4.3c2.8-2.2,6.2-3.4,9.8-3.5c5.4-0.1,10.8,0,16.2,0c0.7,0,1.5,0,2.1,0.2
		c1.8,0.5,3.6,1.4,5.5,1.7c1.7,0.3,3.5,0.6,5.2,0.3c2.7-0.5,3.3-5,1.1-7.3c-0.5-0.5-0.9-1-1.3-1.5c-2.1-2.9-5.2-4.1-8.4-4.4
		c-6-0.6-11.9,1.1-17.6,2.9c-5,1.6-9.9,2.8-15.2,2.8c-3.5,0-6.6-1.1-8.8-4c-0.8-1-1.2-2.4-1.9-3.5c-2.2-3.1-3.3-6.8-4.4-10.4
		c-0.1-0.5,0.1-1,0.1-2c0.7,0.5,1.1,0.7,1.5,1c1,0.9,1.9,1.8,2.8,2.7c1.4,1.3,2.9,2.5,4.4,3.7c1,0.9,1.9,2.1,3.1,2.5
		c4.3,1.5,8.7,2,13.2,1.2c6-1.2,12-2.3,18.2-1.1c1.6,0.3,3.3,0.4,4.9,0.7c2.5,0.6,5,1.3,7.4,1.9c1.2,0.3,2.1-0.2,2.7-1.4
		c-0.6-1.3-1.2-2.4-2.7-2.9c-1.5-0.6-3-1.2-4.2-2c-3.5-2.3-7.1-4.2-11.3-4.2c-1.2,0-2.4,0.1-3.7,0c-1.8-0.2-3.3,0.5-4.4,1.6
		c-2.2,2.2-5,2.5-7.8,2.8c-2,0.2-3.7-0.5-5.5-1.1c-2-0.7-4.1-1.1-5.7-2.8c-1.2-1.2-2.9-2-4.1-3.3c-1.6-1.7-3-3.7-4.4-5.5
		c-1.8-2.2-1.8-4.7,0-6.5c0.5,0.1,1.2,0.1,1.7,0.3c4,1.8,7.9,3.6,11.9,5.4c1.5,0.7,3.2,1,5,1.6c0.3-0.9,0.8-1.5,0.7-2.1
		c-0.5-2.3-1.2-4.3-3.8-5.3c-2.7-1-5.3-2.4-8-3.5c-1.6-0.6-3.2-1.5-4.8-1.5c-3.9-0.1-7.8-0.6-11.6,0.9c-2.4,0.9-4.5,2.3-6.3,4
		c-2.6,2.4-5.1,4.9-7.5,7.5c-2.2,2.4-3.4,5.1-4.7,7.9c-0.5,1-0.2,1.9,0.8,2.6c0.8,0.5,1.7,0.9,2.3,1.5c1.1,1,2.1,2.1,2.9,3.3
		c0.6,0.8,0.8,1.7,1.3,2.6c-0.2,0-0.5,0-0.7,0c-1.1,2.8-2.3,5.5-3.2,8.4c-1,2.9-2.1,5.8-1.7,9.4c1-0.6,1.8-0.8,2.3-1.4
		c1.4-1.6,2.6-3.3,4-4.9c0.4-0.4,0.9-0.8,1.4-1c1.5-0.7,2.7,0,3.8,1c0.1,0.8,0.2,1.6,0.4,2.3c1,3.4,0.1,6.7-0.9,9.9
		c-0.6,2.3-1.7,4.4-2.6,6.6c-1.1,2.5-2.4,5-3.5,7.5c-0.6,1.3-1.7,2.4-1.3,4.5c1.6-1.7,3.5-1.8,5.5-1.5c0.5,0.5,1.1,1,1.6,1.5
		c0.1,2.3,0.1,4.4-0.9,6.5c-1.1,2.6-1.8,5.4-1.5,8.3c0.1,0.8,0.4,1.8,1,2.4c2.7,3,4.1,6.6,5.6,10.2c2.2,4.8,4.3,9.7,6.6,14.7
		c1.2-0.6,2-1.3,2.9-1.5c2.5-0.6,5-0.5,7.4,0.7c0.7,0.4,1.5,0.6,2.3,0.7c1.6,0.3,2.6-0.5,2.9-2.1
		C174.9,190.1,174.6,189.8,174.3,189.6z M141.4,64.4c-1.7-0.1-3.7-0.4-5.6-0.3c-4.4,0.3-8,3.6-7.6,8.4c0.2,3.2-0.8,5.6-3.4,7.4
		c-0.6,0-1.2-0.1-1.8-0.1c-0.4-0.6-0.8-1.1-1.1-1.6c-2.3-3.4-5.2-3.6-8-2.9c-2.9,0.7-5.4,2.3-7.7,4.1c-3.9,3.1-7.6,6.3-11.3,9.5
		c-1.1,0.9-1.9,2.3-1.4,3.8s2.1,1.1,3.3,1.4c0.2,0,0.4,0,0.5,0c2.9-0.6,5.7-1.4,8-3.3c1.7-1.4,3.1-3,4.9-4.9c1,0,2.6,0,4.1,0
		c0.5,0.5,1,1,1.6,1.5c0.1,2.3,0,4.6-1.1,6.8c-1.5,3-2.7,6.2-5,8.7c-1.2,1.3-2.4,2.5-3.7,3.7c-3.8,3.7-7.6,7.4-10.8,10.4
		c-3.3,5.3-6,9.8-8.8,14.3c0.2,0.6,0.2,1.1,0.1,1.6c-1.5,4.5-2.2,9.2-2.1,14c0,1,0.4,2,0.6,3c3.4,0.7,6.4,0.2,9.1-1.3
		c2.5-1.4,4.8-3.2,7.2-4.8c0.4,0.1,0.9,0.2,1.7,0.4c0.1,1,0.4,2,0.4,3.1c0,1.3-0.3,2.5-0.3,3.8c0,5.5,0,11.1,0,16.6
		c0,0.5,0,1.1-0.1,1.6c-0.2,3.3-0.8,6.6,1.1,9.7c0.7,1.1,1.4,2.2,2.4,3.6c4.8-4.5,5.3-10.2,6-15.7c8.2-1.7,13.5,2.5,14.6,9.9
		c0.2,0.3,0.4,0.6,0.6,0.8c0,5.3,0,10.4,0,15.6c0.3,0.3,0.7,0.6,1,0.8c0,0.5,0.1,0.9,0.1,1.3c0.1-0.1,0.2-0.1,0.2-0.2
		c1.4,1.5,2.8,3.1,4.1,4.5c1.4,0,2.6,0,3.8,0c0-3.9,0-7.6,0-11.4c0-3.5,0.9-6.8,3.8-9.1c0.8,0,1.7,0,2.5,0c0.6,0.5,1.1,1,1.6,1.5
		c0.3,2.3-0.5,4.6,0.7,6.8c0.4,0.8,0.8,1.6,1,2.4c0.8,3.9,2.8,6.9,5.7,9.5c0.9,0.8,1.4,0.8,2.1-0.4c-0.2-0.6-0.5-1.4-0.8-2.1
		c-0.5-1.3-1.1-2.6-1.4-3.9c-0.3-1.8-0.2-3.8-0.6-5.6c-0.4-2.3-0.7-4.7-3.3-6c-0.7-0.3-1.1-1.2-1.7-1.9c-1.9-2.5-2.7-6.1-6.4-6.7
		c-0.3-0.8-0.6-1.5-0.9-2.2c-0.9-2.3-1.8-4.6-2.7-6.8c-0.5-1.2-1-2.4-1.8-3.4c-0.6-0.8-1.7-1.2-2.6-1.8c-1.9-1.2-3.9-2.3-5.9-3.5
		c-1.4-0.8-2.5-2-3.5-3.2c2.2-1.3,4.4-2.2,6.2-3.7c1.7-1.5,3-3.5,4.6-5.5c-0.8-0.1-1.1-0.2-1.4-0.2c-2.9,0.3-5.7-0.6-8.4-1.5
		c-1.3-0.4-2.6-0.9-3.6-1.8c-3-2.9-5.8-5.8-8.6-8.9c-0.8-0.9-2.2-1.7-1.5-3.6c0.8-0.4,1.7-1,2.7-1.3c2.7-0.7,5.5-1.1,8.2-1.8
		c1.3-0.3,2.7-0.7,3.7-1.4c2-1.5,3.9-3.3,5.7-4.8c0-0.7-0.1-1.1-0.1-1.4c-2.3-1.1-4.6-1.8-6.6-3.1c-2.1-1.3-3.8-3.2-5.6-4.8
		c0.3-0.6,0.5-1,0.6-1.3c1.1-0.5,2.1-1,3.1-1.5c4.3-1.8,7.3-4.9,9.3-9c1.8-3.7,2-7.6,2.3-11.6c0.2-3,1-6,1.5-8.9
		c0.1-0.3,0.3-0.5,0.5-0.8c1.2-2,3.3-2.9,5.1-4.1C142.8,68.9,143.2,67.2,141.4,64.4z M147.1,216.1c1.7-2.6,1.3-5.4-1-6.8
		c-1.3-0.8-2.7-1.3-4.3-1.3c-3-0.2-5.9-0.6-8.8-0.9c-0.4,0-0.9-0.2-1.3-0.5c-1.9-1.2-3.8-2.3-5.6-3.6c-1.7-1.2-3.4-2.5-4.7-4.1
		c-1.1-1.4-1.6-3.3-2.4-4.9c-1.3-2.3-2.6-4.6-3.9-6.9c-0.1-0.2-0.4-0.4-0.7-0.8c-0.4,0.4-0.8,0.6-1,1c-1.4,3-1.4,6.1,0.3,9
		c0.6,1.1,1.4,2.1,0.6,3.7c-1.3-0.2-2.9,0.1-3.9-0.6c-1.8-1.1-3.3-2.6-4.7-4.1c-1.5-1.5-2.7-3.4-4.2-4.9c-1.9-1.8-3.6-3.7-4.7-6
		c-0.6-1.2-1-2.5-1.5-3.7c-1.1-2.3-2.2-4.7-3.2-7c-0.2-0.4-0.2-0.8-0.2-1.2c0-2.5,0.1-5,0-7.5c0-1-0.3-1.9-0.4-2.9
		c-0.2-0.1-0.5-0.1-0.7-0.2c-0.6,0.9-1.2,1.9-1.7,2.8c-1.4,1.9-3.6,1.2-5.3-0.4c-1.6-1.4-2.7-3.3-3.9-4.8c-0.2-0.7-0.3-1.2-0.5-1.7
		c-0.6-1.6-1.2-3.2-1.8-4.8c-0.1-0.3-0.1-0.6-0.2-0.9c-0.9-2.5-1.9-5-2.6-7.6c-0.4-1.4-0.5-3-0.4-4.5c0.2-2.4,0.7-4.9,1-7.3
		c0.2-0.5,0.6-1,0.5-1.5c-0.3-1.9,0.9-3.3,1.6-4.8c0.9-2.2,2.5-4.1,3.3-6.3c1.8-4.5,4.5-8.3,7.5-12.1c1-1.3,1-2.1-0.5-3.4
		c-2.7,1.4-5.4,2.8-8.6,1.8c-1.1-1.3-0.7-5.2,0.6-6.9c1-1.4,2.1-3,2.7-4.6c1.1-3.1,1.8-6.3,2.6-9.5c-0.1-0.1-0.2-0.1-0.4-0.2
		c-0.4,0.2-0.9,0.4-1.2,0.7c-0.9,0.8-1.7,1.7-2.6,2.5c-2.5,2.4-5,4.7-7.4,7.1c-1.3,1.3-2.5,2.8-3.5,4.4c-0.9,1.5-1.8,3.1-1.3,5.1
		c0.5,0.2,1,0.4,1.5,0.5c2.8,0.7,5.4,4.5,5.2,7.4c-0.2,2.6-0.3,5.1-0.5,7.7c0,0.5,0,1.1-0.3,1.4c-1.2,1.9-2.4,3.7-3.6,5.5
		c-0.7,1.1-1.7,2-2.4,3.1c-1.4,2.3-3.6,4-4.8,6.5c-1,1.9-2,3.8-1.9,6.1c2,0.8,2.8-0.8,3.9-1.8c0.8-0.1,1.7-0.2,2.7-0.3
		c0.4,0.8,0.8,1.7,1.1,2.6c0.6,1.6,0.9,3.3,1.7,4.8c1.6,2.9,3.3,5.8,2.7,9.4c0,0.1,0,0.2,0,0.3c0.3,2.7,0.8,5.4,1,8.1
		c0.1,2.1-0.1,4.3-0.2,6.5c-0.1,3-0.2,5.9-0.2,8.9c0,1.8-0.1,3.7,0.8,5.4c0.4-0.2,0.7-0.2,0.9-0.4c2-1.8,3.7-3.8,4.1-6.5
		c0.5-2.9,2-5,4.1-6.8c3.1-0.4,4,1,4.2,6.6c0.3,0.4,0.6,0.7,0.8,1.1c1.1,2.3,2.2,4.6,3.8,6.6c1,1.2,1.6,2.8,2.5,4
		c1.6,2,3.2,4.1,5,5.9c1.5,1.5,3.3,2.7,5.2,3.9c2.1,1.3,4.3,2.3,6.4,3.4c1.1,0.6,2.1,1.2,3.2,1.6c2.6,1,5.3,1.8,7.9,2.7
		c3.2,1.1,6.4,2.1,9.6,3.2c2.6,0.9,5.3,1.8,7.9,3.1C143.2,216.1,145.1,216.3,147.1,216.1z M107.7,66.4c-0.6,0-1.1,0-1.5-0.1
		c-4-1.1-9.6,1-11.9,4.5c-1,1.5-1,2.5,0,3.4c0.9,0.8,2.8,0.8,3.9-0.2c0.9-0.8,1.8-1.5,2.5-2.4c1.1-1.4,2.3-2.4,4.3-2.5
		C106.1,69.1,107.2,67.9,107.7,66.4z M186.6,95.8c-2.5-1.7-4.6-2.2-9.4-2.5c-0.4-0.3-0.8-0.7-1.2-1.1c-0.4,0.1-0.8,0.2-1.3,0.2
		c0.5,3.1,6.6,6.7,10.1,5C185.5,97.2,186,96.5,186.6,95.8z"/>
	<path class="st1" d="M184.6,174.2c-3.4,2-6.6,3.9-9.8,5.9c-1,0.6-1.9,1.5-2.8,2.3c-1.5,1.2-2.2,2.8-2.3,4.9c-2.1-1-4.1-1.8-5.5-3.7
		c-0.7-0.9-1.6-1.7-2.5-2.5c-1.5-1.4-2.9-2.8-3.7-4.7c-0.3-0.7-1-1.4-1.7-1.9c-2.6-1.9-4.3-4.4-5-7.5c-0.2-0.8-0.3-1.7-0.2-2.5
		c0.6-3.7,1.3-7.4,2-11.1c0.3-1.7,0.7-3.3,1-5c0.4-1.9,1.4-3.7,2.9-4.5c0,0.5,0.1,1,0.1,1.4c0,1.7-0.1,3.4,0.1,5.1
		c0.2,2,0.7,3.9,1,5.9c0.3,1.7,1.2,3,2.4,4c2.7,2.4,5.5,4.8,8.2,7.3c1.2,1.1,2.6,1.7,4,1.5C177.8,168.5,181,171.7,184.6,174.2z"/>
</g>
</svg>
