<svg id="Layer_1" data-name="Layer 1" xmlns="http://www.w3.org/2000/svg" viewBox="0 0 265 268.5"><defs><style>.cls-1{fill:#ef781b;}.cls-2{fill:#fff;}</style></defs><title>logo_icArtboard 1</title><path d="M39.7,197.9c-4.5,2.7-8.9,5.3-13.4,7.9-2.3-3.5-4.8-6.7-6.3-10.5a3.68,3.68,0,0,1,.8-4.4c1.3-1.1,2.8-.9,4.3-.2a4.17,4.17,0,0,0,.6.2c-.2-2.1.4-3.6,2.5-4.3a5,5,0,0,1,5.5,1.9C35.7,191.6,37.6,194.7,39.7,197.9Zm-4.5-1.7c-1.2-1.9-2.3-3.7-3.6-5.4a1.69,1.69,0,0,0-2.5-.5,1.65,1.65,0,0,0-.4,2.4c1,1.8,2,3.6,3.1,5.4C32.9,197.5,33.9,196.9,35.2,196.2Zm-10.6-2.8c-1.5.6-1.8,1.2-1.2,2.4.9,1.8,2,3.5,3.1,5.3,1-.6,1.9-1.1,2.9-1.6C27.6,197.4,27.1,194.6,24.6,193.4Z"/><path d="M156.7,5.4c4.3,1,8.5,1.6,12.3,3.5a4.13,4.13,0,0,1,2.4,4.8q-.75,3.3-4.5,3.3h-.6c1,2.7,2,5.5,3.2,8.6-1.7-.5-2.9-1-4-1.3-.9-2.1-1.7-4-2.5-6s-2.4-2.6-4.4-2.8c-.5,2.1-1,4.2-1.6,6.3-1.2-.3-2.3-.5-3.5-.7C154.5,15.9,155.6,10.8,156.7,5.4Zm2.4,7.4c2.1.5,4.1,1,6.2,1.4a1.66,1.66,0,0,0,2.1-1.2,1.46,1.46,0,0,0-.9-2.1c-2.1-.8-4.3-1.4-6.5-2.1C159.7,10.3,159.4,11.5,159.1,12.8Z"/><path d="M219.1,62.1c4.1-3.3,8.1-6.6,12.5-10.1,2.2,3.5,4.6,6.7,6.4,10.3s.5,7.3-3.1,9.5-7.1,1.7-9.8-1.4a22,22,0,0,1-1.4-1.8C222.1,66.4,220.7,64.3,219.1,62.1Zm4.4,1.5a48.49,48.49,0,0,0,2.9,4.1,5.15,5.15,0,0,0,2.6,1.6c2.1.4,5.6-2.1,6.2-4.2a2.5,2.5,0,0,0,.1-1.7c-1-2.1-2.1-4.2-3.3-6.4C229,59.4,226.3,61.4,223.5,63.6Z"/><path d="M103.2,6.4c1.2-.3,2.2-.5,3.4-.8,1,5.2,1.9,10.3,2.9,15.6-1.5.3-2.9.7-4.2,1-3.5-3.2-7-6.3-10.5-9.4-.1.1-.2.1-.3.2,1.1,3.7,2.2,7.5,3.3,11.3-1,.3-1.9.7-3,1-1.6-5-3.2-9.9-4.9-15.1,1.7-.6,3.3-1.1,5-1.7,3.5,3.1,7,6.2,10.7,9.5C104.8,14.1,104.1,10.4,103.2,6.4Z"/><path d="M54.5,46.6a6.47,6.47,0,0,1-.4,2c-1.8,4.7-5,7.9-10,8.9-3.4.7-8.6-2.2-8.7-6.3a7,7,0,0,1,.4-2.9c2-4.6,5.3-7.8,10.4-8.7C50.2,38.8,54.4,42.5,54.5,46.6Zm-3.8,1.3c0-3.1-3.7-5.6-6.8-4.5a8.42,8.42,0,0,0-4.6,4.3,3.65,3.65,0,0,0,.6,4.2,5.7,5.7,0,0,0,6.3,1.8C48.7,52.7,50.7,50.1,50.7,47.9Z"/><path d="M16.8,98.5c2.8-1.1,5.4-2.2,8.4-3.3-.5,1.6-.9,2.8-1.3,4-1.7.7-3.4,1.4-5,2.1-1.9.8-3.3,2.1-3.3,4.5,1.9.4,3.9.8,6.1,1.2-.2,1.1-.4,2.2-.7,3.4-5.2-.8-10.4-1.7-15.9-2.6,1.1-3.9,2.1-7.7,3.4-11.3A4.36,4.36,0,0,1,14,93.8a3.84,3.84,0,0,1,2.8,3.6Zm-4.4-1.2c-1.6.7-3.2,4.3-3.1,7.2,1.1.2,2.1.4,3.3.6.4-1.9.8-3.6,1.3-5.4C14.2,98.5,13.8,97.7,12.4,97.3Z"/><path d="M124.1,256.6c1.8,2.2,3.6,4.4,5.6,6.8h-4.8c-1.3-1.7-2.6-3.3-3.8-4.9s-2.8-2-4.8-1.9c-.3,2-.7,3.9-1,6-1.4-.2-2.7-.4-4.2-.6,1-5,2.1-9.9,3.1-15,3.8.5,7.4.9,11,1.5a4,4,0,0,1,.2,7.8Zm-6.7-6.4c-.2,1.2-.3,2.3-.5,3.5,2.1.1,4,.3,6,.3.9,0,1.7-.4,1.7-1.5a1.57,1.57,0,0,0-1.4-1.7Z"/><path d="M200.5,23.3c2.9,2.2,5.7,4.1,8.3,6.3,3.2,2.8,3.5,6.7.9,10.2-2.8,3.7-6.6,4.7-10.3,2.4-2.6-1.6-5-3.4-7.5-5.3C194.8,32.4,197.6,28,200.5,23.3Zm-4,13.4c.8.6,1.6,1.1,2.3,1.7,3,2.3,4.7,3.2,8.1-1.4.1-.1.2-.3.3-.4,1.2-2,1.1-3.7-.5-5.2-1.3-1.2-2.7-2.2-4.2-3.4C200.4,30.9,198.5,33.8,196.5,36.7Z"/><path d="M27.8,176.6c-5,1.8-9.8,3.6-14.8,5.4-1.3-3.7-3.3-7.1-3.5-11.1a5.62,5.62,0,0,1,2.3-4.8,8.36,8.36,0,0,1,13.4,3.6C26,172,26.9,174.2,27.8,176.6Zm-4-2.4c-.4-1-.7-1.8-1-2.7l-.6-1.5a3.48,3.48,0,0,0-4-2.3,14,14,0,0,0-3.5,1,2.93,2.93,0,0,0-2,3.5,36.31,36.31,0,0,0,1.5,5.1C17.5,176.3,20.6,175.2,23.8,174.2Z"/><path d="M3,121.1a35.93,35.93,0,0,1,1.2-4.7c1.3-3.4,4.4-5.1,8.2-4.7s6.6,2.6,7.2,6.3c.8,4.6-.9,10-6.2,11C6.6,130.5,2.9,126.3,3,121.1Zm3.2-.4c-.1,3.1,1.8,5,5.2,5,3.2,0,5.4-2,5.5-5.1s-1.9-5.1-5.5-5.2C8.2,115.3,6.2,117.3,6.2,120.7Z"/><path d="M136.9,18.9c.3-5.2.6-10.4.9-15.9,5.1.5,10.1,1.1,15.3,1.6-.2,1.1-.3,1.9-.4,2.7-3.7-.4-7.3-.9-11-1.3-.1,1.3-.2,2.3-.3,3.4l10,1.2c-.1,1-.3,1.8-.4,2.6-3.3-.4-6.5-.8-9.8-1.1-.1,1.6-.3,3-.4,4.4,3.6.5,7.1.9,10.6,1.4-.2,1-.3,1.8-.5,2.6C146.2,20,141.6,19.5,136.9,18.9Z"/><path d="M175.6,21.9c.1,3,1.8,4.9,4.7,5a2.92,2.92,0,0,0,2.1-1.1c.2-.3-.2-1.5-.7-1.9-1.2-1.1-2.6-1.9-3.8-3a12.29,12.29,0,0,1-2.5-2.6,3.34,3.34,0,0,1,2.6-5.4,11.67,11.67,0,0,1,9.7,4.3,3.75,3.75,0,0,1,.5,4.3c-1.1-.6-2.2-1.1-3.4-1.7.1-2.5-1.7-3.2-3.5-3.8-.9-.3-1.9-.7-2.9.5a9.34,9.34,0,0,0,1.3,1.5c1.2,1,2.5,1.9,3.8,2.9a6.47,6.47,0,0,1,.9.8c1.9,1.7,2.4,3.7,1.5,5.5a4.71,4.71,0,0,1-5.3,2.5,13.81,13.81,0,0,1-6.8-3.2,5.53,5.53,0,0,1-1.8-5.7A29.15,29.15,0,0,0,175.6,21.9Z"/><path d="M234.1,87.2c4.3-2.2,8.6-4.3,12.9-6.5,1.6,3.7,3.6,7,4.3,10.9s-2.5,7.5-6.8,7.7a6.52,6.52,0,0,1-6.6-3.7,3.51,3.51,0,0,0-.5-.8C236.3,92.3,235.3,89.8,234.1,87.2Zm12.4-1.7c-3,1.4-5.6,2.6-8.5,3.9.8,1.7,1.4,3.3,2.3,4.8a2.84,2.84,0,0,0,3.3,1.5,10.53,10.53,0,0,0,3.1-1.2,3.07,3.07,0,0,0,1.6-3.7C247.8,89.1,247.1,87.4,246.5,85.5Z"/><path d="M4,149.8c1.1-.1,2-.2,2.9-.3.6,3.2,1.2,6.4,1.8,9.7,1.1-.2,2.1-.3,3.2-.5-.5-3-1-5.9-1.6-8.9a23.58,23.58,0,0,0,2.8-.4c.5,2.9,1.1,5.7,1.6,8.7,1.3-.2,2.5-.5,3.8-.7-.6-3.2-1.1-6.2-1.7-9.5,1.1-.1,1.9-.2,2.8-.3.8,4.2,1.6,8.3,2.5,12.7-5,1.1-10.1,2.2-15.5,3.4C5.8,159.1,4.9,154.6,4,149.8Z"/><path d="M221.2,40.4c1.3,1.4,2.4,2.5,3.7,3.9-2.2,5.4-4.4,10.8-6.8,16.6-1-1.3-1.9-2.2-2.7-3.2.5-1.2,1.1-2.3,1.6-3.6-1.8-1.9-3.7-3.9-5.6-6-1.2.5-2.3,1-3.6,1.5-.9-.8-1.8-1.7-3-2.8C210.5,44.6,215.9,42.5,221.2,40.4Zm-.2,4.3-.3-.3c-2.1.8-4.3,1.6-6.6,2.5,1.5,1.6,2.8,2.9,4.2,4.4C219.2,49,220.1,46.9,221,44.7Z"/><path d="M73.9,17.3c1.4,3,2.8,5.7,4.2,8.5,1.1,2.2,2.2,2.7,4.6,1.7a11.94,11.94,0,0,0,1.6-.8c1.9-1.1,2.3-2.1,1.5-4.2-1.1-3-2.3-6-3.6-9.3,1.3-.5,2.5-1.1,4-1.7.3.8.6,1.4.8,2.1.9,2.6,1.9,5.2,2.7,7.9a5,5,0,0,1-1.9,6,17.26,17.26,0,0,1-7.4,3.4c-2.2.4-4.1-.2-5.2-2.3-1.7-3.1-3.4-6.1-5.1-9.4A33.56,33.56,0,0,0,73.9,17.3Z"/><path d="M242.4,160c.2-1.2.5-2.2.7-3.3l14.1,2.7c-.9,4-1.4,8-3.2,11.6a3.85,3.85,0,0,1-4.4,2.2,3.63,3.63,0,0,1-2.8-3.8v-1.2c-1.3.6-2.4,1.2-3.7,1.7s-2.4.8-3.9,1.3c.5-1.4.8-2.6,1.2-3.6,3-1.6,7.1-1.6,7.7-6.2C246.2,160.9,244.4,160.4,242.4,160Zm8.3,1.8c-.5,2-1,3.8-1.3,5.6a2.23,2.23,0,0,0,1,1.8c.3.2,1.5-.3,1.7-.8.7-1.9,1.2-3.9,1.8-5.9A30.06,30.06,0,0,1,250.7,161.8Z"/><path d="M39.3,221.5c-1-1.1-1.9-2-2.9-3.1,2.4-1.8,4.7-3.5,6.9-5.3,1-.8,2.4-1.5,2-3.1a5.09,5.09,0,0,0-3.6-4,3.61,3.61,0,0,0-2.4.6c-2.3,1.4-4.6,3-6.9,4.5-.4.3-.9.6-1.4.9-.8-1.1-1.6-2.1-2.6-3.3,3.5-2.1,6.9-4.1,10.3-6,1.4-.8,2.9-.4,4.3.4a13.72,13.72,0,0,1,5.6,6.3,4.21,4.21,0,0,1-1.1,5.3C44.8,216.9,42.1,219.1,39.3,221.5Z"/><path d="M102.1,244.1c1,.3,2.2.6,3.2.9,1,5.5,2,10.9,3,16.4l-4.2-.9c-.3-1.3-.5-2.6-.7-3.8-2.4-.7-4.8-1.4-7.2-2l-3,2.7c-1.3-.5-2.7-1-4-1.4C93.4,252,97.7,248.1,102.1,244.1Zm-3.7,8.3c1.5.4,2.9.8,4.5,1.3-.2-1.9-.4-3.5-.6-5.4C101,249.7,99.8,251,98.4,252.4Z"/><path d="M170.7,252.7c-2.4.8-4.8,1.6-7.1,2.4-.2,1.2-.3,2.4-.5,3.8q-2,.6-4.2,1.2c.7-5.5,1.4-10.9,2.1-16.5.9-.3,2.1-.7,3.1-1.1,4.6,3.7,9,7.4,13.6,11.2-1.3.5-2.6,1.1-3.9,1.7A40,40,0,0,0,170.7,252.7Zm-2.4-2.2c-1.4-1.3-2.7-2.5-4.3-4V252C165.4,251.5,166.7,251,168.3,250.5Z"/><path d="M254.5,99.2c1.1,4.7,2.2,9.3,3.3,13.9-1,.2-1.8.3-2.7.5-.8-3.3-1.5-6.5-2.2-9.8-1,.3-1.9.5-2.8.8.7,3,1.3,5.8,2,8.9-.9.2-1.7.3-2.6.5-.7-2.9-1.3-5.7-2-8.7-1.2.3-2.2.6-3.4.9.7,3.2,1.4,6.2,2,9.4-.9.2-1.7.4-2.5.5-1-4.2-2-8.3-3-12.6C245.1,102.2,249.6,100.7,254.5,99.2Z"/><path d="M64.6,231.3c-.8-.9-1.6-1.9-2.5-3a7.39,7.39,0,0,1,6.1-.9,12.57,12.57,0,0,1,6.6,4.2c1.9,2.3,2.6,4.8,1.2,7.6a7.05,7.05,0,0,1-7.3,4.1,13.29,13.29,0,0,1-9.6-5.2,5.18,5.18,0,0,1-.8-5.8c1.2.7,2.4,1.3,3.6,1.9-.6,3.6,2.7,5.5,5.2,5.9s5.2-1.9,5.7-4.5a4,4,0,0,0-1.4-3.5C69.5,230.4,67.7,230.2,64.6,231.3Z"/><path d="M13.4,141.5c1.9-.1,3.7-.2,5.7-.4.1,1.1.3,2.2.4,3.4-5.3.5-10.5,1-16,1.6-.1-3.6-.4-7.1-.2-10.5a4.21,4.21,0,0,1,4.1-4.2c2.9-.1,4.8,1.2,5.3,3.9A61.84,61.84,0,0,1,13.4,141.5Zm-7.3.6c1.6-.1,2.9-.2,4.3-.4-.1-1.6-.2-3.1-.4-4.6-.2-1.1-.7-2-2-2A1.9,1.9,0,0,0,6.1,137C6,138.7,6.1,140.3,6.1,142.1Z"/><path d="M151.9,255.5h3.9a5.75,5.75,0,0,1-3.1,5.2,11.65,11.65,0,0,1-9.1,1.1,6.39,6.39,0,0,1-4.9-5.6c-.4-3.1.4-5.9,3.1-7.7a10.36,10.36,0,0,1,8.4-1.5,6.24,6.24,0,0,1,4.2,3.2c-1.1.5-2.2.9-3.3,1.3-2.1-2.2-4-2.6-6.8-1.1-1.8,1-2.3,3.2-1.5,5.9a4.18,4.18,0,0,0,4.1,3.2C149.5,259.6,150.9,258.4,151.9,255.5Z"/><path d="M197.9,230.4c-.2-1.3-.4-2.4-.6-3.7.9-.7,1.9-1.4,3.2-2.3.8,5.5,1.6,10.8,2.3,16-1.4.9-2.5,1.6-3.9,2.4-4.4-2.9-8.7-5.9-13.3-9,1.3-.7,2.4-1.4,3.5-2,1,.7,1.9,1.4,3,2.1C194,232.9,195.9,231.7,197.9,230.4Zm1.2,8.2c-.2-1.9-.4-3.5-.7-5.3-1.3.9-2.5,1.6-3.8,2.4C196.1,236.7,197.4,237.6,199.1,238.6Z"/><path d="M28.6,56.2c1-1.3,1.8-2.4,2.7-3.5,2.9,4.6,5.8,9.2,8.8,13.9-.7,1-1.5,2.1-2.2,3.2-5.8-.5-11.5-.9-17.3-1.4.7-1.2,1.4-2.4,2.2-3.7l12.5,1.2C33,62.6,30.8,59.4,28.6,56.2Z"/><path d="M128.7,19.1h-3.9c-2.7-4.9-5.4-9.9-8.1-15.1,1.4-.2,2.7-.3,4.3-.5,1.9,4,3.8,7.9,5.7,12,1.7-4.2,3.3-8.4,5-12.4H136C133.6,8.4,131.2,13.6,128.7,19.1Z"/><path d="M229,217.5l-15.3-4.6c1-1,1.7-1.9,2.6-2.8,1.2.4,2.3.7,3.5,1.1,1.4-1.7,2.7-3.3,4.2-5-.6-1.1-1.2-2.1-1.8-3.2.7-.9,1.4-1.9,2.3-3.1,2.5,4.9,4.9,9.6,7.3,14.2C230.8,215.3,230,216.3,229,217.5Zm-6.5-5.4c1.7.5,3.3.9,5.1,1.4-.8-1.7-1.5-3.2-2.3-4.7C224.4,209.9,223.5,210.9,222.5,212.1Z"/><path d="M243.5,154.7c.2-1.5.4-2.5.5-3.7,1.1-.3,2.3-.7,3.6-1.1.2-2.1.4-4.1.7-6.4-1.1-.5-2.1-1.1-3.1-1.6V138c4.8,2.6,9.4,5,14,7.5-.1,1.5-.3,2.8-.4,4.3Zm11.9-7.3c-1.7-1-3.1-1.7-4.6-2.5-.1,1.5-.3,2.8-.4,4.2C252,148.6,253.5,148.1,255.4,147.4Z"/><path d="M234.6,193.9c-1.6-.9-3-1.8-4.5-2.7.5-1,1-1.9,1.6-3,4.2,2.3,8.4,4.5,12.8,6.9-2,3.1-3.8,6.1-5.9,9a4.07,4.07,0,0,1-5.7,1c-1.9-1.3-2.4-3.6-1.3-6a21.48,21.48,0,0,1,1.4-2.6C233.6,195.6,234.1,194.8,234.6,193.9Zm2.3,1.3c-.8,1.4-1.6,2.7-2.3,4.1-.5.9-.6,2,.5,2.6a1.71,1.71,0,0,0,2.4-.8c.9-1.2,1.7-2.6,2.6-4C239.1,196.5,238.1,195.9,236.9,195.2Z"/><path d="M238,183.1c.8-2,1.7-3.9,2.6-6-.9-.8-1.9-1.5-2.8-2.2.5-1.4.9-2.4,1.4-3.8,3.8,3.9,7.4,7.6,11.1,11.3-.6,1.4-1.1,2.5-1.6,3.9H232.8c.6-1.2,1-2.2,1.5-3.2Zm8.2,0-3.6-3.9c-.6,1.4-1.1,2.6-1.7,3.9Z"/><path d="M207.5,231.9c.9-1,1.7-1.9,2.5-2.7a4.91,4.91,0,0,0,6.1-2.2c1.1-1.8.9-3.3-.6-5-1.7-1.9-3.4-2.5-5.2-1.6-2.3,1.1-3.1,2.7-2.6,5.9-1,.5-2.1,1-3.5,1.6a21.47,21.47,0,0,1,0-4.4c1-4.2,6.3-7.4,10.4-6.4a7.08,7.08,0,0,1,5,9.2,10.53,10.53,0,0,1-7.3,6.6A5.87,5.87,0,0,1,207.5,231.9Z"/><path d="M28.7,86.4c-.5,1.2-.9,2.1-1.4,3.3-4-1.3-8-2.7-12.2-4.1-.7,1.8-1.4,3.5-2.1,5.3-.9-.2-1.7-.5-2.9-.8,2.1-4.9,4.1-9.6,6.2-14.5,1,.4,1.9.8,2.8,1.2-.8,1.8-1.6,3.4-2.4,5.2C20.7,83.4,24.7,84.9,28.7,86.4Z"/><path d="M50.8,215.4c.8-.7,1.4-1.2,2.1-1.8,3.3,3,6.6,6,10.2,9.2L51.9,233.1c-.7-.5-1.7-1.4-2.6-2.2,2.8-3.1,5.6-6.1,8.4-9.1C55.5,219.9,53.2,217.7,50.8,215.4Z"/><path d="M245.2,132.9c-.1-1-.1-2.1-.2-3.3,4-.3,7.8-.5,11.8-.8-.1-1.9-.2-3.6-.3-5.5.8-.1,1.6-.2,2.7-.4.2,5.1.4,10,.5,15.1H257v-5.2C253,132.9,249.1,132.9,245.2,132.9Z"/><path d="M114.7,4.2c.6,5.4,1.3,10.5,1.9,15.8-1.2.2-2.4.4-3.7.5-.8-5.3-1.6-10.4-2.4-15.7A28.32,28.32,0,0,0,114.7,4.2Z"/><path d="M189.1,35.1c-1.1-.6-2-1.2-3.1-1.8,2.6-4.6,5.1-9.3,7.7-14,1.2.7,2.3,1.4,3.6,2.1C194.5,25.9,191.8,30.4,189.1,35.1Z"/><path d="M31.9,79.8c-4.8-2.1-9.5-4.1-14.3-6.2.7-1.2,1.3-2.4,2-3.6,4.7,2.2,9.3,4.3,14.1,6.6C33.1,77.7,32.5,78.7,31.9,79.8Z"/><path d="M135.5,248.4c.2,4.8.5,9.8.8,15-1.4.1-2.7.1-4.2.2V248.4Z"/><path d="M180.5,249.8a3.88,3.88,0,0,1-4-3.6c0-1.7,2.2-3.6,3.9-3.6s3.9,2,3.9,3.7A4,4,0,0,1,180.5,249.8Z"/><path d="M86.8,249.8a3.44,3.44,0,0,1-3.7-3.6,3.81,3.81,0,0,1,3.7-3.6,4.27,4.27,0,0,1,3.9,3.8A3.91,3.91,0,0,1,86.8,249.8Z"/><path d="M202.7,241.9c-.1,1.2-.2,2.3-.3,3.5-1.2.7-2.4,1.5-3.6,2.2C199.8,245.4,199.8,242.8,202.7,241.9Z"/><path d="M62.5,72.3c-.1-.3-.2-.3-.2-.4.8-3.6,1.4-7.4,5.2-9.2,3.6-1.8,7.4-3.3,11.1-4.8a15.39,15.39,0,0,0,5.2-3.5c3.1-2.9,6.4-5.2,10.8-6,2.6-.4,5-1.5,7.5-2.1,1.9-.5,3.9-.6,5.8-1.3a45.14,45.14,0,0,1,14.6-2.9c2.8,0,5.7-.2,8.5-.2a11.77,11.77,0,0,1,7.8,2.5,14.88,14.88,0,0,0,3.6,1.7c1.4.6,3.1.9,4.3,1.8a30.44,30.44,0,0,1,4.8,4.7c2.4,2.9,4.7,5.9,7,8.9.2.2.5.4.7.6a47.87,47.87,0,0,0,9.5,5.7c1.7.8,3,2.3,4.7,3.1,2.3,1.1,3.4,3.2,5,4.9,1.3,1.4,2.5,3,3.9,4.4a7.13,7.13,0,0,0,2.9,1.4c2.6.8,5.3,1.5,8,2.1,3.7.8,7.5,1.4,11.2,2.2a23.39,23.39,0,0,1,7.1,2.6c2.1,1.2,4.6,1.6,7.5,2.5a3.83,3.83,0,0,1,1.2,3.4,6.69,6.69,0,0,0,0,2c.4,3.2-1.4,5.3-3.6,7.2-.7.6-1.3,1.5-1.9,2.1.3,2.2.6,4.3,1,6.4a18,18,0,0,1-1.2,10c-.5,1.1-.9,2.3-1.3,3.4-.9,2.5-3,3.8-5,5.1a4.31,4.31,0,0,1-1.5.3,10.89,10.89,0,0,0-1-3.2,21.09,21.09,0,0,0-3.3-4.4,16,16,0,0,0-7.9-4.2c-2.2-.4-4.4-.8-6.6-1-2.6-.2-5.3-.1-8-.3-3.5-.3-5.9,1.6-8,4s-2.6,5.8-3,8.9c-.4,3.5-.5,7.1-.7,10.6a5.87,5.87,0,0,0,.4,2.3c1.2,3,3.1,5.5,6.5,6.3a11.24,11.24,0,0,0,3.2.4c4.2-.1,8.4-.2,12.5-.6,2.9-.3,5.1-3.3,5.2-6.2v-3.8a4.51,4.51,0,0,1,2.4,2.3c.8,1.6,1.5,3.2,2.4,4.8,1.1,2,2.2,4,3.4,6a6.89,6.89,0,0,1,1.2,3.9c0,2.8,0,5.6-.1,8.5a5.33,5.33,0,0,1-.7,2,57.3,57.3,0,0,1-2.6,7.3,15.39,15.39,0,0,1-2.8,3.5c-3.4,4-7.9,6.4-12.8,8.1-.7.2-1.6.2-2.5.4v-8.1c0-1,.2-2,.2-2.9-.1-1.9-1.7-1.9-3.1-2.2a5.34,5.34,0,0,0-2.2.2c-4.2,1.7-6.8,5-8.3,9.1a9.81,9.81,0,0,0-.3,3.8c.2,4.2-1.3,7.8-2.9,11.5-1.4,3.2-3.9,5.3-6.4,7.5-1.2,1-1.4,1-3.7.7.4-1.2.9-2.4,1.2-3.7a7.86,7.86,0,0,0-.6-5.4c-.5-1.1-.6-2.4-1-3.6-.5-1.4-1.4-1.6-2.5-.5a3.09,3.09,0,0,0-.8,3.7c1.8,3.9,1.6,7.8.4,11.7-.4,1.4-1,2.8-1.5,4.2h-2.1c-.5-.8-1-1.6-1.7-2.7-.9.7-1.5,1.2-2.2,1.8.2.1.3.1.5.2.2,2.8.5,5.7.6,8.5a24.68,24.68,0,0,1-2.2,10,7.91,7.91,0,0,1-2.7,3.3c-.8.6-2.1.6-3.6.9v-4.2a20.78,20.78,0,0,0-3.1-10.6,13.64,13.64,0,0,0-3.3-3.5c-3.8-3.1-8.3-4.4-13-5.5-4.4-1.1-8.8-1.9-12.9-3.7-3.1-1.3-6.4-2.6-9.1-5-2.1-1.9-4.5-3.3-6.6-5.1-1.2-1-2-2.4-3.1-3.5-2.6-2.6-5.3-5.2-7.9-7.9a15.94,15.94,0,0,1-1.5-2.1,1.38,1.38,0,0,0-1.2,1.8c.5,2.1,1.2,4.1,1.8,6.2a18.47,18.47,0,0,0,1.3,2.9c-.3.1-.7.3-.9.2a70.1,70.1,0,0,1-8.9-2.7c-1.7-.8-3-2.5-4.5-3.7a3.39,3.39,0,0,0-.6-.6c-3.1-1.9-4.4-5.1-5.6-8.2a29.64,29.64,0,0,1-2.4-11.8c0-4.2-.1-8.4,0-12.6,0-2.1.3-4.1.5-6.2.1-.9.1-1.8-.8-2a2.89,2.89,0,0,0-2.4.5c-1.6,1.5-1.4,3.5-1.1,5.4.2,1.5.5,3.1.6,4.7a2.22,2.22,0,0,1-2,2.5c-3.6-2.4-6.8-5.3-8.5-9.6-1.4-3.4-1.3-6.8-1.3-10.3,0-2.1.3-4.1.3-6.2,0-3.1,2.3-5.2,3.7-7.6a27.5,27.5,0,0,1,1.9-2.8,9.35,9.35,0,0,1,1.6-1.8c3.7-2.2,5-5.7,5.6-9.6.2-1.6.3-3.3.4-5a1.85,1.85,0,0,0-.7-.2,21.16,21.16,0,0,0-1.2,2,17.42,17.42,0,0,0-.5,2.2c-.6,1.6-1.2,2-3.2,1.9a49.51,49.51,0,0,1-3.2-5.1,13.22,13.22,0,0,1-.7-9.4c1.1-4.1,3.6-7.5,5.9-10.9,2.7-4.2,6.5-7.3,10-10.8,2.1-2.1,4.5-3.9,6.7-5.8a10.61,10.61,0,0,0,1.7-2C68.1,70.4,65.6,72.1,62.5,72.3Z"/><path class="cls-1" d="M163.9,181.2c0-2.8.1-2.9,1.7-4.5.2-.2.4-.5.6-.7a24.77,24.77,0,0,1,10-7.8c2.8-1.4,5.6-1.1,8.5-.6a4.05,4.05,0,0,1,.9.5,15.09,15.09,0,0,1,5.3,7.4c1-.8,1.9-1.4,2.7-2,4-3.1,6.7-6.8,6.3-12.1a5.85,5.85,0,0,1,.2-1.3c.1-1.7.2-3.3.3-5.4-1.2.6-2,1-2.9,1.5-3.7,2.2-7.5,4-12.1,3.4a8.85,8.85,0,0,0-2.3,0c-4.2.4-7.9-1.5-11.6-2.9a16.24,16.24,0,0,1-8.7-7.8,17.76,17.76,0,0,1-1.6-6.5c-.2-1.9.6-3.9.5-5.8-.5-5.6.8-10.8,2.5-16a9.42,9.42,0,0,1,2.6-4.3,16.49,16.49,0,0,1,9.8-3.5c5.4-.1,10.8,0,16.2,0a7.15,7.15,0,0,1,2.1.2,50.11,50.11,0,0,0,5.5,1.7,15.21,15.21,0,0,0,5.2.3c2.7-.5,3.3-5,1.1-7.3a17.38,17.38,0,0,1-1.3-1.5,11.18,11.18,0,0,0-8.4-4.4c-6-.6-11.9,1.1-17.6,2.9a49.22,49.22,0,0,1-15.2,2.8c-3.5,0-6.6-1.1-8.8-4a39,39,0,0,1-1.9-3.5c-2.2-3.1-3.3-6.8-4.4-10.4a17.22,17.22,0,0,1,.1-2c.7.5,1.1.7,1.5,1,1,.9,1.9,1.8,2.8,2.7,1.4,1.3,2.9,2.5,4.4,3.7,1,.9,1.9,2.1,3.1,2.5a25.8,25.8,0,0,0,13.2,1.2c6-1.2,12-2.3,18.2-1.1,1.6.3,3.3.4,4.9.7,2.5.6,5,1.3,7.4,1.9a2.22,2.22,0,0,0,2.7-1.4c-.6-1.3-1.2-2.4-2.7-2.9a23.34,23.34,0,0,1-4.2-2c-3.5-2.3-7.1-4.2-11.3-4.2-1.2,0-2.4.1-3.7,0a5.27,5.27,0,0,0-4.4,1.6c-2.2,2.2-5,2.5-7.8,2.8-2,.2-3.7-.5-5.5-1.1-2-.7-4.1-1.1-5.7-2.8-1.2-1.2-2.9-2-4.1-3.3-1.6-1.7-3-3.7-4.4-5.5-1.8-2.2-1.8-4.7,0-6.5a10.1,10.1,0,0,1,1.7.3c4,1.8,7.9,3.6,11.9,5.4a49.18,49.18,0,0,0,5,1.6c.3-.9.8-1.5.7-2.1-.5-2.3-1.2-4.3-3.8-5.3s-5.3-2.4-8-3.5c-1.6-.6-3.2-1.5-4.8-1.5-3.9-.1-7.8-.6-11.6.9a18.81,18.81,0,0,0-6.3,4q-3.9,3.6-7.5,7.5a29,29,0,0,0-4.7,7.9,1.9,1.9,0,0,0,.8,2.6,13,13,0,0,1,2.3,1.5,18.07,18.07,0,0,1,2.9,3.3,21,21,0,0,1,1.3,2.6h-.7c-1.1,2.8-2.3,5.5-3.2,8.4s-2.1,5.8-1.7,9.4a9.21,9.21,0,0,0,2.3-1.4c1.4-1.6,2.6-3.3,4-4.9a4.51,4.51,0,0,1,1.4-1c1.5-.7,2.7,0,3.8,1a15.72,15.72,0,0,0,.4,2.3c1,3.4.1,6.7-.9,9.9a53.18,53.18,0,0,1-2.6,6.6c-1.1,2.5-2.4,5-3.5,7.5-.6,1.3-1.7,2.4-1.3,4.5,1.6-1.7,3.5-1.8,5.5-1.5.5.5,1.1,1,1.6,1.5a13.06,13.06,0,0,1-.9,6.5,16.84,16.84,0,0,0-1.5,8.3,4.29,4.29,0,0,0,1,2.4c2.7,3,4.1,6.6,5.6,10.2,2.2,4.8,4.3,9.7,6.6,14.7a16.21,16.21,0,0,1,2.9-1.5,10.56,10.56,0,0,1,7.4.7,6.15,6.15,0,0,0,2.3.7,2.29,2.29,0,0,0,2.9-2.1A3.69,3.69,0,0,0,163.9,181.2Z"/><path class="cls-1" d="M131,56a49.83,49.83,0,0,0-5.6-.3c-4.4.3-8,3.6-7.6,8.4a7.65,7.65,0,0,1-3.4,7.4c-.6,0-1.2-.1-1.8-.1-.4-.6-.8-1.1-1.1-1.6-2.3-3.4-5.2-3.6-8-2.9A20.48,20.48,0,0,0,95.8,71c-3.9,3.1-7.6,6.3-11.3,9.5a3.52,3.52,0,0,0-1.4,3.8c.5,1.5,2.1,1.1,3.3,1.4h.5c2.9-.6,5.7-1.4,8-3.3a56.53,56.53,0,0,0,4.9-4.9h4.1c.5.5,1,1,1.6,1.5a13.4,13.4,0,0,1-1.1,6.8c-1.5,3-2.7,6.2-5,8.7-1.2,1.3-2.4,2.5-3.7,3.7-3.8,3.7-7.6,7.4-10.8,10.4-3.3,5.3-6,9.8-8.8,14.3a3,3,0,0,1,.1,1.6,41.37,41.37,0,0,0-2.1,14,15.94,15.94,0,0,0,.6,3,12.79,12.79,0,0,0,9.1-1.3c2.5-1.4,4.8-3.2,7.2-4.8.4.1.9.2,1.7.4a29.09,29.09,0,0,1,.4,3.1c0,1.3-.3,2.5-.3,3.8v16.6a8.6,8.6,0,0,1-.1,1.6c-.2,3.3-.8,6.6,1.1,9.7.7,1.1,1.4,2.2,2.4,3.6,4.8-4.5,5.3-10.2,6-15.7,8.2-1.7,13.5,2.5,14.6,9.9a5.55,5.55,0,0,0,.6.8v15.6a7,7,0,0,0,1,.8c0,.5.1.9.1,1.3.1-.1.2-.1.2-.2,1.4,1.5,2.8,3.1,4.1,4.5h3.8V179.8c0-3.5.9-6.8,3.8-9.1h2.5c.6.5,1.1,1,1.6,1.5.3,2.3-.5,4.6.7,6.8a12.23,12.23,0,0,1,1,2.4,17,17,0,0,0,5.7,9.5c.9.8,1.4.8,2.1-.4-.2-.6-.5-1.4-.8-2.1a30.43,30.43,0,0,1-1.4-3.9c-.3-1.8-.2-3.8-.6-5.6-.4-2.3-.7-4.7-3.3-6-.7-.3-1.1-1.2-1.7-1.9-1.9-2.5-2.7-6.1-6.4-6.7-.3-.8-.6-1.5-.9-2.2-.9-2.3-1.8-4.6-2.7-6.8a13.82,13.82,0,0,0-1.8-3.4,10,10,0,0,0-2.6-1.8c-1.9-1.2-3.9-2.3-5.9-3.5a13.37,13.37,0,0,1-3.5-3.2c2.2-1.3,4.4-2.2,6.2-3.7a43.14,43.14,0,0,0,4.6-5.5c-.8-.1-1.1-.2-1.4-.2-2.9.3-5.7-.6-8.4-1.5a9.4,9.4,0,0,1-3.6-1.8c-3-2.9-5.8-5.8-8.6-8.9-.8-.9-2.2-1.7-1.5-3.6a16.94,16.94,0,0,1,2.7-1.3c2.7-.7,5.5-1.1,8.2-1.8a10.94,10.94,0,0,0,3.7-1.4c2-1.5,3.9-3.3,5.7-4.8,0-.7-.1-1.1-.1-1.4-2.3-1.1-4.6-1.8-6.6-3.1a43,43,0,0,1-5.6-4.8,11.81,11.81,0,0,0,.6-1.3c1.1-.5,2.1-1,3.1-1.5a17.78,17.78,0,0,0,9.3-9c1.8-3.7,2-7.6,2.3-11.6a87,87,0,0,1,1.5-8.9,3.51,3.51,0,0,1,.5-.8c1.2-2,3.3-2.9,5.1-4.1C132.4,60.5,132.8,58.8,131,56Z"/><path class="cls-1" d="M136.7,207.7c1.7-2.6,1.3-5.4-1-6.8a8,8,0,0,0-4.3-1.3c-3-.2-5.9-.6-8.8-.9a2.35,2.35,0,0,1-1.3-.5c-1.9-1.2-3.8-2.3-5.6-3.6a23.08,23.08,0,0,1-4.7-4.1c-1.1-1.4-1.6-3.3-2.4-4.9l-3.9-6.9c-.1-.2-.4-.4-.7-.8-.4.4-.8.6-1,1a9.3,9.3,0,0,0,.3,9c.6,1.1,1.4,2.1.6,3.7-1.3-.2-2.9.1-3.9-.6a23.08,23.08,0,0,1-4.7-4.1c-1.5-1.5-2.7-3.4-4.2-4.9a20.81,20.81,0,0,1-4.7-6c-.6-1.2-1-2.5-1.5-3.7-1.1-2.3-2.2-4.7-3.2-7a2.54,2.54,0,0,1-.2-1.2c0-2.5.1-5,0-7.5a28.86,28.86,0,0,0-.4-2.9c-.2-.1-.5-.1-.7-.2-.6.9-1.2,1.9-1.7,2.8-1.4,1.9-3.6,1.2-5.3-.4a34.19,34.19,0,0,1-3.9-4.8c-.2-.7-.3-1.2-.5-1.7l-1.8-4.8c-.1-.3-.1-.6-.2-.9-.9-2.5-1.9-5-2.6-7.6a13.52,13.52,0,0,1-.4-4.5c.2-2.4.7-4.9,1-7.3.2-.5.6-1,.5-1.5-.3-1.9.9-3.3,1.6-4.8.9-2.2,2.5-4.1,3.3-6.3a48.9,48.9,0,0,1,7.5-12.1c1-1.3,1-2.1-.5-3.4C74.7,97.6,72,99,68.8,98c-1.1-1.3-.7-5.2.6-6.9a21.34,21.34,0,0,0,2.7-4.6c1.1-3.1,1.8-6.3,2.6-9.5-.1-.1-.2-.1-.4-.2a4.73,4.73,0,0,0-1.2.7c-.9.8-1.7,1.7-2.6,2.5-2.5,2.4-5,4.7-7.4,7.1a25.07,25.07,0,0,0-3.5,4.4c-.9,1.5-1.8,3.1-1.3,5.1a8.8,8.8,0,0,0,1.5.5c2.8.7,5.4,4.5,5.2,7.4-.2,2.6-.3,5.1-.5,7.7a2.09,2.09,0,0,1-.3,1.4c-1.2,1.9-2.4,3.7-3.6,5.5-.7,1.1-1.7,2-2.4,3.1-1.4,2.3-3.6,4-4.8,6.5-1,1.9-2,3.8-1.9,6.1,2,.8,2.8-.8,3.9-1.8q1.2-.15,2.7-.3a20.29,20.29,0,0,1,1.1,2.6,39,39,0,0,0,1.7,4.8c1.6,2.9,3.3,5.8,2.7,9.4v.3c.3,2.7.8,5.4,1,8.1.1,2.1-.1,4.3-.2,6.5-.1,3-.2,5.9-.2,8.9,0,1.8-.1,3.7.8,5.4.4-.2.7-.2.9-.4,2-1.8,3.7-3.8,4.1-6.5a11.21,11.21,0,0,1,4.1-6.8c3.1-.4,4,1,4.2,6.6a7.63,7.63,0,0,1,.8,1.1,33.27,33.27,0,0,0,3.8,6.6c1,1.2,1.6,2.8,2.5,4a70.78,70.78,0,0,0,5,5.9,29.42,29.42,0,0,0,5.2,3.9c2.1,1.3,4.3,2.3,6.4,3.4a23.88,23.88,0,0,0,3.2,1.6c2.6,1,5.3,1.8,7.9,2.7,3.2,1.1,6.4,2.1,9.6,3.2a64.53,64.53,0,0,1,7.9,3.1A16.25,16.25,0,0,0,136.7,207.7Z"/><path class="cls-1" d="M97.3,58a6.62,6.62,0,0,1-1.5-.1c-4-1.1-9.6,1-11.9,4.5-1,1.5-1,2.5,0,3.4a3.17,3.17,0,0,0,3.9-.2,19,19,0,0,0,2.5-2.4,5.53,5.53,0,0,1,4.3-2.5C95.7,60.7,96.8,59.5,97.3,58Z"/><path class="cls-2" d="M176.2,87.4c-2.5-1.7-4.6-2.2-9.4-2.5a12,12,0,0,1-1.2-1.1,5.07,5.07,0,0,1-1.3.2c.5,3.1,6.6,6.7,10.1,5C175.1,88.8,175.6,88.1,176.2,87.4Z"/><path d="M174.2,165.8c-3.4,2-6.6,3.9-9.8,5.9a20.11,20.11,0,0,0-2.8,2.3,6.22,6.22,0,0,0-2.3,4.9c-2.1-1-4.1-1.8-5.5-3.7a19.68,19.68,0,0,0-2.5-2.5,14,14,0,0,1-3.7-4.7,5.1,5.1,0,0,0-1.7-1.9,12.48,12.48,0,0,1-5-7.5,7.07,7.07,0,0,1-.2-2.5c.6-3.7,1.3-7.4,2-11.1.3-1.7.7-3.3,1-5a6.56,6.56,0,0,1,2.9-4.5c0,.5.1,1,.1,1.4a43.41,43.41,0,0,0,.1,5.1c.2,2,.7,3.9,1,5.9a6.62,6.62,0,0,0,2.4,4c2.7,2.4,5.5,4.8,8.2,7.3a5,5,0,0,0,4,1.5C167.4,160.1,170.6,163.3,174.2,165.8Z"/><path d="M238.1,130.5a123.62,123.62,0,0,1-5.4,35.8A108.18,108.18,0,0,1,190,223.6a96.37,96.37,0,0,1-23.3,11.8,118.31,118.31,0,0,1-24.2,5.7,80.13,80.13,0,0,1-18.3.6c-6.2-.6-12.3-1.9-18.4-3a80,80,0,0,1-17.9-5.9,108.32,108.32,0,0,1-45.8-38.5,104.17,104.17,0,0,1-11.6-22.5,126.61,126.61,0,0,1-6-23.5,92,92,0,0,1-.9-24,124,124,0,0,1,5-24.8A109.47,109.47,0,0,1,68.5,44.3,109.82,109.82,0,0,1,101,28.6c4.6-1.3,9.4-2.1,14.1-3,7.3-1.4,14.6-1.3,21.9-1a79.34,79.34,0,0,1,18.2,2.8,122.72,122.72,0,0,1,15.9,5.1A102.55,102.55,0,0,1,198,48.7a109.33,109.33,0,0,1,33.4,47.6,101.91,101.91,0,0,1,5,20.1C237.3,122,237.8,127.6,238.1,130.5Zm-5.8,1a93.71,93.71,0,0,0-2.1-19c-5.5-26.2-18.9-47.4-40.4-63.2-19-13.9-40.4-20.2-63.9-19.2A98.3,98.3,0,0,0,71.8,49,104.14,104.14,0,0,0,29,131.6a94.47,94.47,0,0,0,1.1,15.9c4.4,30.1,19,54.1,44,71.3,22.3,15.3,47,20.5,73.7,16A96.92,96.92,0,0,0,200,208.5C221.9,187.5,232.2,161.6,232.3,131.5Z"/></svg>